<svg width="26" height="25" viewBox="0 0 26 25" fill="none" xmlns="http://www.w3.org/2000/svg">
<g clip-path="url(#clip0_1_5154)">
<rect x="0.888916" y="0.0909424" width="24.2424" height="24.2424" fill="#E1E7FE"/>
<path d="M11.0815 18.5254C10.0304 18.5336 9.08886 17.8767 8.73362 16.8875C8.37838 15.8982 8.68699 14.7925 9.50319 14.1302C8.92427 13.6616 8.58793 12.9567 8.58793 12.2119C8.58793 11.4671 8.92427 10.7622 9.50319 10.2937C8.68673 9.63156 8.37794 8.52575 8.73324 7.53644C9.08855 6.54713 10.0303 5.89046 11.0815 5.89901H14.9388C15.9899 5.89046 16.9317 6.54713 17.287 7.53644C17.6423 8.52575 17.3335 9.63156 16.5171 10.2937C17.3333 10.956 17.6419 12.0617 17.2866 13.051C16.9314 14.0402 15.9899 14.6971 14.9388 14.6889C14.4533 14.6895 13.9782 14.5481 13.572 14.2823V16.05C13.5661 17.4205 12.4521 18.5278 11.0815 18.5254ZM11.0676 14.6895C10.3198 14.7013 9.72206 15.315 9.7299 16.0628C9.73775 16.8106 10.3482 17.4116 11.0961 17.4078C11.8439 17.4039 12.4482 16.7966 12.4483 16.0487V14.6895H11.0669H11.0676ZM14.9394 10.853C14.1897 10.8568 13.5846 11.4671 13.5872 12.2168C13.5897 12.9666 14.1989 13.5727 14.9487 13.5714C15.6984 13.5702 16.3056 12.962 16.3056 12.2122C16.3028 11.4597 15.6913 10.8516 14.9388 10.853H14.9394ZM11.0821 10.853C10.5965 10.8504 10.1464 11.1071 9.90135 11.5263C9.65631 11.9456 9.65354 12.4637 9.89409 12.8855C10.1346 13.3074 10.582 13.5688 11.0676 13.5714H12.4483V10.853H11.0821ZM13.572 7.01652V9.7356H14.9382C15.6689 9.73899 16.2718 9.16451 16.3037 8.43445V8.70907V8.37573C16.3006 7.62414 15.6904 7.01652 14.9388 7.01652H13.572ZM11.0808 7.01652C10.5952 7.01652 10.1465 7.27558 9.90372 7.69613C9.66092 8.11667 9.66092 8.6348 9.90372 9.05534C10.1465 9.47589 10.5952 9.73495 11.0808 9.73495H12.4483V7.01652H11.0808Z" fill="#516CF7"/>
</g>
<defs>
<clipPath id="clip0_1_5154">
<rect x="0.888916" y="0.0909424" width="24.2424" height="24.2424" rx="12.1212" fill="white"/>
</clipPath>
</defs>
</svg>
