<svg width="13" height="13" viewBox="0 0 13 13" fill="none" xmlns="http://www.w3.org/2000/svg">
<path d="M6.15157 11.1769C5.51365 10.6328 4.92237 10.0362 4.38389 9.39356C3.57581 8.42841 2.61621 6.99103 2.61621 5.62133C2.6155 4.1908 3.47694 2.90082 4.79857 2.35335C6.1202 1.80588 7.6415 2.10883 8.65258 3.12083C9.31746 3.78275 9.68991 4.68315 9.68694 5.62133C9.68694 6.99103 8.72732 8.42841 7.91924 9.39356C7.38077 10.0362 6.78948 10.6328 6.15157 11.1769ZM6.15157 4.10618C5.61025 4.10618 5.11006 4.39497 4.83941 4.86376C4.56875 5.33255 4.56875 5.91012 4.83941 6.37891C5.11006 6.8477 5.61025 7.13649 6.15157 7.13649C6.98836 7.13649 7.66672 6.45813 7.66672 5.62133C7.66672 4.78454 6.98836 4.10618 6.15157 4.10618Z" fill="#79819A"/>
</svg>
